<svg width="25" height="25" viewBox="0 0 25 25" fill="none" xmlns="http://www.w3.org/2000/svg">
<g clip-path="url(#clip0_420_448)">
<path d="M23.9289 0.954823C23.6994 0.805888 23.4428 0.703624 23.1738 0.653871C22.9048 0.604119 22.6287 0.607853 22.3611 0.664861C22.0935 0.72187 21.8398 0.831035 21.6144 0.98612C21.3891 1.14121 21.1965 1.33917 21.0476 1.56871L9.37403 19.5625L3.68097 14.2986C3.48011 14.1129 3.24464 13.9685 2.988 13.8738C2.73136 13.7791 2.45858 13.7358 2.18522 13.7465C1.63316 13.7682 1.1123 14.0082 0.737223 14.4139C0.362144 14.8195 0.163572 15.3575 0.185191 15.9096C0.20681 16.4617 0.446848 16.9825 0.8525 17.3576L8.3275 24.2687C8.3275 24.2687 8.54208 24.4534 8.64139 24.518C8.87089 24.6671 9.12752 24.7694 9.3966 24.8192C9.66568 24.869 9.94193 24.8653 10.2096 24.8083C10.4772 24.7513 10.731 24.6421 10.9564 24.487C11.1819 24.3318 11.3745 24.1338 11.5233 23.9041L24.5428 3.83607C24.6917 3.6066 24.794 3.35003 24.8437 3.08102C24.8935 2.81201 24.8897 2.53583 24.8327 2.26827C24.7757 2.0007 24.6666 1.74699 24.5115 1.52163C24.3564 1.29626 24.1584 1.10366 23.9289 0.954823Z" fill="#00FF47"/>
</g>
<defs>
<clipPath id="clip0_420_448">
<rect width="25" height="25" fill="white"/>
</clipPath>
</defs>
</svg>
