<svg width="37" height="37" viewBox="0 0 37 37" fill="none" xmlns="http://www.w3.org/2000/svg">
<g opacity="0.2">
<path fill-rule="evenodd" clip-rule="evenodd" d="M18.5 0C8.28273 0 0 8.28273 0 18.5C0 28.7173 8.28273 37 18.5 37C28.7173 37 37 28.7173 37 18.5C37 8.28273 28.7173 0 18.5 0ZM23.4322 14.0242C23.4322 16.6561 21.2147 18.797 18.4866 18.797C15.7592 18.797 13.541 16.6561 13.541 14.0242C13.541 11.3915 15.7592 9.25 18.4866 9.25C21.2147 9.25 23.4322 11.3915 23.4322 14.0242ZM20.5003 22.6927C21.507 22.4713 22.4779 22.0868 23.3721 21.5447C24.0489 21.1328 24.2528 20.2693 23.8263 19.616C23.4002 18.9613 22.5063 18.7642 21.8283 19.1761C19.8025 20.4058 17.1943 20.4055 15.1697 19.1761C14.4917 18.7642 13.5975 18.9613 13.1723 19.616C12.7459 20.2699 12.9491 21.1328 13.6259 21.5447C14.5202 22.0863 15.491 22.4713 16.4977 22.6927L13.7327 25.3617C13.1675 25.9079 13.1675 26.7934 13.7333 27.3395C14.0165 27.6123 14.387 27.7488 14.7575 27.7488C15.1285 27.7488 15.4996 27.6123 15.7828 27.3395L18.4987 24.7167L21.217 27.3395C21.7822 27.8856 22.6992 27.8856 23.265 27.3395C23.8314 26.7934 23.8314 25.9073 23.265 25.3617L20.5003 22.6927ZM20.5329 14.0232C20.5329 12.9332 19.6144 12.0469 18.4852 12.0469C17.3569 12.0469 16.4375 12.9332 16.4375 14.0232C16.4375 15.1124 17.3569 15.9993 18.4852 15.9993C19.6144 15.9993 20.5329 15.1124 20.5329 14.0232Z" fill="white"/>
</g>
</svg>
