<svg width="38" height="39" viewBox="0 0 38 39" fill="none" xmlns="http://www.w3.org/2000/svg">
<path fill-rule="evenodd" clip-rule="evenodd" d="M0.667969 19.3346C0.667969 9.02532 9.02532 0.667969 19.3346 0.667969C29.6439 0.667969 38.0013 9.02532 38.0013 19.3346C38.0013 29.6439 29.6439 38.0013 19.3346 38.0013C9.02532 38.0013 0.667969 29.6439 0.667969 19.3346ZM19.3222 19.635C22.0748 19.635 24.3124 17.4748 24.3124 14.8192C24.3124 12.1627 22.0748 10.002 19.3222 10.002C16.5702 10.002 14.332 12.1627 14.332 14.8192C14.332 17.4748 16.5702 19.635 19.3222 19.635ZM24.2512 22.4078C23.3489 22.9548 22.3692 23.3428 21.3535 23.5661L24.1431 26.2592C24.7146 26.8097 24.7146 27.7038 24.1431 28.2548C23.5722 28.8059 22.6469 28.8059 22.0766 28.2548L19.3339 25.6084L16.5935 28.2548C16.3078 28.5301 15.9333 28.6678 15.5589 28.6678C15.1851 28.6678 14.8113 28.5301 14.5255 28.2548C13.9547 27.7038 13.9547 26.8103 14.5249 26.2592L17.3149 23.5661C16.2991 23.3428 15.3195 22.9543 14.4172 22.4078C13.7343 21.9922 13.5292 21.1215 13.9594 20.4618C14.3885 19.8012 15.2908 19.6023 15.9748 20.0179C18.0177 21.2584 20.6494 21.2587 22.6935 20.0179C23.3775 19.6023 24.2795 19.8012 24.7095 20.4618C25.1397 21.1209 24.934 21.9922 24.2512 22.4078Z" fill="url(#paint0_linear_420_214)"/>
<path d="M19.324 12.8242C20.4634 12.8242 21.3902 13.7186 21.3902 14.8184C21.3902 15.9173 20.4634 16.8123 19.324 16.8123C18.1855 16.8123 17.2578 15.9173 17.2578 14.8184C17.2578 13.7186 18.1855 12.8242 19.324 12.8242Z" fill="url(#paint1_linear_420_214)"/>
<defs>
<linearGradient id="paint0_linear_420_214" x1="19.3346" y1="0.667969" x2="19.3346" y2="38.0013" gradientUnits="userSpaceOnUse">
<stop stop-color="#0560E8"/>
<stop offset="1" stop-color="#448FFF"/>
</linearGradient>
<linearGradient id="paint1_linear_420_214" x1="19.324" y1="12.8242" x2="19.324" y2="16.8123" gradientUnits="userSpaceOnUse">
<stop stop-color="#0560E8"/>
<stop offset="1" stop-color="#448FFF"/>
</linearGradient>
</defs>
</svg>
