<svg width="38" height="38" viewBox="0 0 38 38" fill="none" xmlns="http://www.w3.org/2000/svg">
<circle cx="18.665" cy="18.665" r="18.665" fill="url(#paint0_linear_581_155)"/>
<path fill-rule="evenodd" clip-rule="evenodd" d="M18.5374 18.547C21.2654 18.547 23.483 16.4061 23.483 13.7742C23.483 11.1415 21.2654 9 18.5374 9C15.81 9 13.5918 11.1415 13.5918 13.7742C13.5918 16.4061 15.81 18.547 18.5374 18.547ZM20.5511 22.4427C21.5578 22.2213 22.5286 21.8368 23.4229 21.2947C24.0997 20.8828 24.3035 20.0193 23.8771 19.366C23.451 18.7113 22.5571 18.5142 21.8791 18.9261C19.8533 20.1558 17.2451 20.1555 15.2205 18.9261C14.5425 18.5142 13.6483 18.7113 13.223 19.366C12.7966 20.0199 12.9999 20.8828 13.6767 21.2947C14.5709 21.8363 15.5418 22.2213 16.5485 22.4427L13.7835 25.1117C13.2183 25.6579 13.2183 26.5434 13.7841 27.0895C14.0673 27.3623 14.4378 27.4988 14.8083 27.4988C15.1793 27.4988 15.5504 27.3623 15.8336 27.0895L18.5495 24.4667L21.2678 27.0895C21.833 27.6356 22.75 27.6356 23.3158 27.0895C23.8822 26.5434 23.8822 25.6573 23.3158 25.1117L20.5511 22.4427ZM20.5837 13.7732C20.5837 12.6832 19.6652 11.7969 18.536 11.7969C17.4077 11.7969 16.4883 12.6832 16.4883 13.7732C16.4883 14.8624 17.4077 15.7493 18.536 15.7493C19.6652 15.7493 20.5837 14.8624 20.5837 13.7732Z" fill="white"/>
<defs>
<linearGradient id="paint0_linear_581_155" x1="18.665" y1="0" x2="18.665" y2="37.33" gradientUnits="userSpaceOnUse">
<stop stop-color="#0560E8"/>
<stop offset="1" stop-color="#448FFF"/>
</linearGradient>
</defs>
</svg>
