<svg width="30" height="30" viewBox="0 0 30 30" fill="none" xmlns="http://www.w3.org/2000/svg">
<path d="M13.5064 18.9391L11.2453 21.2002C10.7686 21.6769 10.0109 21.6769 9.52198 21.2124C9.38753 21.078 9.25309 20.9558 9.11865 20.8213C7.85976 19.5502 6.72309 18.218 5.70865 16.8247C4.70642 15.4313 3.89976 14.038 3.31309 12.6569C2.73865 11.2635 2.44531 9.93133 2.44531 8.66022C2.44531 7.82911 2.59198 7.03466 2.88531 6.30133C3.17865 5.55577 3.64309 4.87133 4.29087 4.26022C5.07309 3.49022 5.92865 3.11133 6.83309 3.11133C7.17531 3.11133 7.51753 3.18466 7.82309 3.33133C8.14087 3.47799 8.42198 3.69799 8.64198 4.01577L11.4775 8.01244C11.6975 8.31799 11.8564 8.59911 11.9664 8.86799C12.0764 9.12466 12.1375 9.38133 12.1375 9.61355C12.1375 9.90688 12.052 10.2002 11.8809 10.4813C11.722 10.7624 11.4898 11.0558 11.1964 11.3491L10.2675 12.3147C10.1331 12.4491 10.072 12.608 10.072 12.8035C10.072 12.9013 10.0842 12.9869 10.1086 13.0847C10.1453 13.1824 10.182 13.2558 10.2064 13.3291C10.4264 13.7324 10.8053 14.258 11.3431 14.8935C11.8931 15.5291 12.4798 16.1769 13.1153 16.8247C13.2375 16.9469 13.372 17.0691 13.4942 17.1913C13.9831 17.668 13.9953 18.4502 13.5064 18.9391Z" fill="url(#paint0_linear_420_208)"/>
<path d="M26.8533 23.0695C26.8533 23.4117 26.7922 23.7662 26.6699 24.1084C26.6333 24.2062 26.5966 24.304 26.5477 24.4017C26.3399 24.8417 26.071 25.2573 25.7166 25.6484C25.1177 26.3084 24.4577 26.7851 23.7122 27.0906C23.6999 27.0906 23.6877 27.1028 23.6755 27.1028C22.9544 27.3962 22.1722 27.5551 21.3288 27.5551C20.0822 27.5551 18.7499 27.2617 17.3444 26.6628C15.9388 26.064 14.5333 25.2573 13.1399 24.2428C12.6633 23.8884 12.1866 23.5339 11.7344 23.1551L15.731 19.1584C16.0733 19.4151 16.3788 19.6106 16.6355 19.7451C16.6966 19.7695 16.7699 19.8062 16.8555 19.8428C16.9533 19.8795 17.051 19.8917 17.161 19.8917C17.3688 19.8917 17.5277 19.8184 17.6622 19.684L18.591 18.7673C18.8966 18.4617 19.1899 18.2295 19.471 18.0828C19.7522 17.9117 20.0333 17.8262 20.3388 17.8262C20.571 17.8262 20.8155 17.8751 21.0844 17.9851C21.3533 18.0951 21.6344 18.254 21.9399 18.4617L25.9855 21.3339C26.3033 21.5539 26.5233 21.8106 26.6577 22.1162C26.7799 22.4217 26.8533 22.7273 26.8533 23.0695Z" fill="url(#paint1_linear_420_208)"/>
<defs>
<linearGradient id="paint0_linear_420_208" x1="8.15617" y1="3.11133" x2="8.15617" y2="21.5593" gradientUnits="userSpaceOnUse">
<stop stop-color="#0560E8"/>
<stop offset="1" stop-color="#448FFF"/>
</linearGradient>
<linearGradient id="paint1_linear_420_208" x1="19.2938" y1="17.8262" x2="19.2938" y2="27.5551" gradientUnits="userSpaceOnUse">
<stop stop-color="#0560E8"/>
<stop offset="1" stop-color="#448FFF"/>
</linearGradient>
</defs>
</svg>
