<svg width="30" height="30" viewBox="0 0 30 30" fill="none" xmlns="http://www.w3.org/2000/svg">
<path d="M20.7786 4.33203H8.55642C4.88976 4.33203 2.44531 6.16536 2.44531 10.4431V18.9987C2.44531 23.2765 4.88976 25.1098 8.55642 25.1098H12.9198C13.6409 25.1098 14.2275 24.4743 14.1298 23.7531C14.0075 22.8854 14.032 21.9809 14.2153 21.052C14.8631 17.8743 17.4786 15.3443 20.6809 14.8187C22.282 14.562 23.8098 14.782 25.1542 15.3687C25.9731 15.7231 26.8898 15.1609 26.8898 14.2687V10.4431C26.8898 6.16536 24.4453 4.33203 20.7786 4.33203ZM21.3531 11.1643L17.5275 14.2198C16.7209 14.8676 15.6942 15.1854 14.6675 15.1854C13.6409 15.1854 12.602 14.8676 11.8075 14.2198L7.98198 11.1643C7.59087 10.8465 7.52976 10.272 7.83531 9.8687C8.15309 9.47759 8.72753 9.40425 9.11865 9.72203L12.9442 12.7776C13.8731 13.5231 15.4498 13.5231 16.3786 12.7776L20.2042 9.72203C20.5953 9.40425 21.182 9.46536 21.4875 9.8687C21.8053 10.272 21.7442 10.8465 21.3531 11.1643Z" fill="url(#paint0_linear_420_207)"/>
<path d="M22.0017 16.5547C18.6284 16.5547 15.8906 19.2802 15.8906 22.6658C15.8906 26.0391 18.6284 28.7769 22.0017 28.7769C25.3873 28.7769 28.1128 26.0391 28.1128 22.6658C28.1128 19.2802 25.3873 16.5547 22.0017 16.5547ZM24.5073 22.1158L24.0551 22.5558L21.3906 25.2325C21.2684 25.3425 21.0362 25.4647 20.8651 25.4891L19.6673 25.6602C19.2395 25.7214 18.934 25.4158 18.9951 24.988L19.1662 23.7902C19.1906 23.6191 19.3006 23.3869 19.4228 23.2647L22.0873 20.6125L22.5273 20.1602C22.8206 19.8669 23.1506 19.6714 23.4928 19.6714C23.7862 19.6714 24.1162 19.8058 24.4828 20.1602C25.3017 20.9547 25.0451 21.578 24.5073 22.1158Z" fill="url(#paint1_linear_420_207)"/>
<defs>
<linearGradient id="paint0_linear_420_207" x1="14.6675" y1="4.33203" x2="14.6675" y2="25.1098" gradientUnits="userSpaceOnUse">
<stop stop-color="#0560E8"/>
<stop offset="1" stop-color="#448FFF"/>
</linearGradient>
<linearGradient id="paint1_linear_420_207" x1="22.0017" y1="16.5547" x2="22.0017" y2="28.7769" gradientUnits="userSpaceOnUse">
<stop stop-color="#0560E8"/>
<stop offset="1" stop-color="#448FFF"/>
</linearGradient>
</defs>
</svg>
