<svg width="17" height="16" viewBox="0 0 17 16" fill="none" xmlns="http://www.w3.org/2000/svg">
<path d="M12.4821 7.64244C12.1776 7.64244 11.9367 7.39244 11.9367 7.09244C11.9367 6.82815 11.6746 6.27815 11.2355 5.79958C10.8034 5.3353 10.3288 5.06387 9.93214 5.06387C9.62755 5.06387 9.38672 4.81387 9.38672 4.51387C9.38672 4.21387 9.63464 3.96387 9.93214 3.96387C10.6405 3.96387 11.3842 4.34958 12.0359 5.04244C12.6451 5.69244 13.0346 6.49958 13.0346 7.0853C13.0346 7.39244 12.7867 7.64244 12.4821 7.64244Z" fill="white"/>
<path d="M15.036 7.64258C14.7315 7.64258 14.4906 7.39258 14.4906 7.09258C14.4906 4.55686 12.4435 2.49972 9.93604 2.49972C9.63146 2.49972 9.39062 2.24972 9.39062 1.94972C9.39062 1.64972 9.63146 1.39258 9.92896 1.39258C13.0456 1.39258 15.5815 3.94972 15.5815 7.09258C15.5815 7.39258 15.3335 7.64258 15.036 7.64258Z" fill="white"/>
<path d="M7.82839 10.6426L6.51797 11.964C6.24172 12.2426 5.80255 12.2426 5.51922 11.9712C5.4413 11.8926 5.36339 11.8212 5.28547 11.7426C4.55589 10.9997 3.89714 10.2212 3.30922 9.40686C2.72839 8.59258 2.26089 7.77829 1.92089 6.97115C1.58797 6.15686 1.41797 5.37829 1.41797 4.63544C1.41797 4.14972 1.50297 3.68544 1.67297 3.25686C1.84297 2.82115 2.11214 2.42115 2.48755 2.06401C2.94089 1.61401 3.43672 1.39258 3.96089 1.39258C4.15922 1.39258 4.35755 1.43544 4.53464 1.52115C4.7188 1.60686 4.88172 1.73544 5.00922 1.92115L6.65255 4.25686C6.78005 4.43544 6.87214 4.59972 6.93589 4.75686C6.99964 4.90686 7.03505 5.05686 7.03505 5.19258C7.03505 5.36401 6.98547 5.53544 6.8863 5.69972C6.79422 5.86401 6.65964 6.03544 6.48964 6.20686L5.9513 6.77115C5.87339 6.84972 5.83797 6.94258 5.83797 7.05686C5.83797 7.11401 5.84505 7.16401 5.85922 7.22115C5.88047 7.27829 5.90172 7.32115 5.91589 7.36401C6.04339 7.59972 6.26297 7.90686 6.57464 8.27829C6.89339 8.64972 7.23339 9.02829 7.60172 9.40686C7.67255 9.47829 7.75047 9.54972 7.8213 9.62115C8.10464 9.89972 8.11172 10.3569 7.82839 10.6426Z" fill="white"/>
<path d="M15.5629 13.0565C15.5629 13.2565 15.5274 13.4636 15.4566 13.6636C15.4354 13.7208 15.4141 13.7779 15.3858 13.835C15.2654 14.0922 15.1095 14.335 14.9041 14.5636C14.557 14.9493 14.1745 15.2279 13.7424 15.4065C13.7354 15.4065 13.7283 15.4136 13.7212 15.4136C13.3033 15.585 12.8499 15.6779 12.3612 15.6779C11.6387 15.6779 10.8666 15.5065 10.052 15.1565C9.23745 14.8065 8.42286 14.335 7.61536 13.7422C7.33911 13.535 7.06286 13.3279 6.80078 13.1065L9.11703 10.7708C9.31536 10.9208 9.49245 11.035 9.6412 11.1136C9.67661 11.1279 9.71911 11.1493 9.7687 11.1708C9.82536 11.1922 9.88203 11.1993 9.94578 11.1993C10.0662 11.1993 10.1583 11.1565 10.2362 11.0779L10.7745 10.5422C10.9516 10.3636 11.1216 10.2279 11.2845 10.1422C11.4474 10.0422 11.6104 9.99219 11.7874 9.99219C11.922 9.99219 12.0637 10.0208 12.2195 10.085C12.3754 10.1493 12.5383 10.2422 12.7154 10.3636L15.0599 12.0422C15.2441 12.1708 15.3716 12.3208 15.4495 12.4993C15.5204 12.6779 15.5629 12.8565 15.5629 13.0565Z" fill="white"/>
</svg>
