<svg width="30" height="30" viewBox="0 0 30 30" fill="none" xmlns="http://www.w3.org/2000/svg">
<path d="M18.3675 15.3024C18.1145 15.3024 17.9145 15.0819 17.9145 14.8171C17.9145 14.584 17.6969 14.0987 17.3322 13.6764C16.9733 13.2667 16.5792 13.0272 16.2498 13.0272C15.9969 13.0272 15.7969 12.8066 15.7969 12.5419C15.7969 12.2772 16.0028 12.0566 16.2498 12.0566C16.8381 12.0566 17.4557 12.397 17.9969 13.0083C18.5028 13.5819 18.8263 14.294 18.8263 14.8108C18.8263 15.0819 18.6204 15.3024 18.3675 15.3024Z" fill="white"/>
<path d="M20.4851 15.3028C20.2322 15.3028 20.0322 15.0822 20.0322 14.8175C20.0322 12.5801 18.3322 10.765 16.2498 10.765C15.9969 10.765 15.7969 10.5444 15.7969 10.2797C15.7969 10.015 15.9969 9.78809 16.2439 9.78809C18.8322 9.78809 20.938 12.0444 20.938 14.8175C20.938 15.0822 20.7322 15.3028 20.4851 15.3028Z" fill="white"/>
<path d="M14.5032 17.9499L13.415 19.1158C13.1856 19.3616 12.8209 19.3616 12.5856 19.1221C12.5209 19.0528 12.4562 18.9898 12.3915 18.9204C11.7856 18.265 11.2385 17.578 10.7503 16.8595C10.2679 16.141 9.87969 15.4225 9.59733 14.7104C9.32086 13.9919 9.17969 13.3049 9.17969 12.6494C9.17969 12.2209 9.25028 11.8112 9.39145 11.433C9.53263 11.0486 9.75616 10.6956 10.0679 10.3805C10.4444 9.98346 10.8562 9.78809 11.2915 9.78809C11.4562 9.78809 11.6209 9.8259 11.7679 9.90153C11.9209 9.97716 12.0562 10.0906 12.162 10.2545L13.5267 12.3154C13.6326 12.473 13.7091 12.6179 13.762 12.7566C13.815 12.8889 13.8444 13.0213 13.8444 13.141C13.8444 13.2923 13.8032 13.4435 13.7209 13.5885C13.6444 13.7335 13.5326 13.8847 13.3915 14.036L12.9444 14.5339C12.8797 14.6032 12.8503 14.6851 12.8503 14.786C12.8503 14.8364 12.8562 14.8805 12.8679 14.9309C12.8856 14.9814 12.9032 15.0192 12.915 15.057C13.0209 15.265 13.2032 15.536 13.462 15.8637C13.7267 16.1914 14.0091 16.5255 14.315 16.8595C14.3738 16.9225 14.4385 16.9856 14.4973 17.0486C14.7326 17.2944 14.7385 17.6978 14.5032 17.9499Z" fill="white"/>
<path d="M20.9249 20.0798C20.9249 20.2562 20.8955 20.439 20.8367 20.6155C20.819 20.6659 20.8014 20.7163 20.7778 20.7667C20.6778 20.9936 20.5484 21.2079 20.3779 21.4096C20.0896 21.7499 19.772 21.9957 19.4131 22.1533C19.4073 22.1533 19.4014 22.1596 19.3955 22.1596C19.0484 22.3108 18.672 22.3928 18.2661 22.3928C17.6661 22.3928 17.0249 22.2415 16.3484 21.9327C15.672 21.6239 14.9955 21.2079 14.3249 20.6848C14.0955 20.502 13.8661 20.3193 13.6484 20.1239L15.572 18.063C15.7367 18.1953 15.8837 18.2961 16.0073 18.3655C16.0367 18.3781 16.072 18.397 16.1131 18.4159C16.1602 18.4348 16.2073 18.4411 16.2602 18.4411C16.3602 18.4411 16.4367 18.4033 16.5014 18.334L16.9484 17.8613C17.0955 17.7037 17.2367 17.584 17.372 17.5083C17.5073 17.4201 17.6426 17.376 17.7896 17.376C17.9014 17.376 18.019 17.4012 18.1484 17.4579C18.2778 17.5146 18.4131 17.5966 18.5602 17.7037L20.5073 19.1848C20.6602 19.2982 20.7661 19.4306 20.8308 19.5882C20.8896 19.7457 20.9249 19.9033 20.9249 20.0798Z" fill="white"/>
<circle cx="15" cy="15" r="14.5" stroke="white"/>
</svg>
